PathFileType	4	(X/Y/Z)	C:\Git\powerlifing_model_clean\simulations\Test1\Session1\HC835B_STD_0001\marker_experimental.trc
DataRate	CameraRate	NumFrames	NumMarkers	Units	OrigDataRate	OrigDataStartFrame	OrigNumFrames
240.000000	240.000000	4	54	mm	240.000000	126	337
Frame#	Time	RPSI			LPSI			RASI			LASI			RGT			RTH1			RTH2			RTH3			RTH4			RLK			RMK			RSK1			RSK2			RSK3			RSK4			RLA			RMA			RCAL1			RCAL2			RCAL3			RST			RPT			RTN			RFMB			RSMB			RVMB			RFMH			RSMH			RVMH			RPM			LGT			LTH1			LTH2			LTH3			LTH4			LLK			LMK			LSK1			LSK2			LSK3			LSK4			LLA			LMA			LCAL1			LCAL2			LCAL3			LFMH			LVMH			RHJC			LHJC			RKJC			LKJC			RAJC			LAJC
		X1	Y1	Z1	X2	Y2	Z2	X3	Y3	Z3	X4	Y4	Z4	X5	Y5	Z5	X6	Y6	Z6	X7	Y7	Z7	X8	Y8	Z8	X9	Y9	Z9	X10	Y10	Z10	X11	Y11	Z11	X12	Y12	Z12	X13	Y13	Z13	X14	Y14	Z14	X15	Y15	Z15	X16	Y16	Z16	X17	Y17	Z17	X18	Y18	Z18	X19	Y19	Z19	X20	Y20	Z20	X21	Y21	Z21	X22	Y22	Z22	X23	Y23	Z23	X24	Y24	Z24	X25	Y25	Z25	X26	Y26	Z26	X27	Y27	Z27	X28	Y28	Z28	X29	Y29	Z29	X30	Y30	Z30	X31	Y31	Z31	X32	Y32	Z32	X33	Y33	Z33	X34	Y34	Z34	X35	Y35	Z35	X36	Y36	Z36	X37	Y37	Z37	X38	Y38	Z38	X39	Y39	Z39	X40	Y40	Z40	X41	Y41	Z41	X42	Y42	Z42	X43	Y43	Z43	X44	Y44	Z44	X45	Y45	Z45	X46	Y46	Z46	X47	Y47	Z47	X48	Y48	Z48	X49	Y49	Z49	X50	Y50	Z50	X51	Y51	Z51	X52	Y52	Z52	X53	Y53	Z53	X54	Y54	Z54
127	0.525000	494.823242	1162.248535	-354.583374	386.417938	1159.684814	-350.920593	554.777466	1105.387085	-558.609070	315.616364	1100.968750	-556.235352	636.996704	1023.877014	-450.096344	639.386475	836.333679	-461.355865	627.337219	819.437256	-518.508545	629.694885	753.567505	-476.365021	606.388855	737.463196	-527.653870	609.055908	552.723572	-458.234222	483.385773	538.573303	-447.795502	612.951965	307.353241	-361.070129	614.939575	287.917694	-419.452423	611.331726	249.535706	-372.236145	600.306030	231.762115	-428.223907	605.279785	114.726212	-359.365021	521.994141	124.284142	-404.317291	560.309387	95.533447	-304.807709	528.737061	58.204159	-314.383575	592.802185	58.827003	-308.805298	517.327515	76.243683	-380.650543	618.407349	72.280373	-367.073212	530.420654	94.487579	-438.338013	536.996643	78.135330	-469.443665	586.252258	101.827263	-477.460968	632.312500	47.749649	-410.209808	537.371704	50.644222	-527.299744	592.001465	65.821266	-537.528381	648.227722	42.262840	-490.583679	582.585571	53.292744	-596.861633	244.513611	1012.982178	-444.747986	238.927704	830.803589	-444.318359	242.086624	813.683838	-502.562317	243.012665	746.208191	-457.673462	263.004974	730.940002	-513.553223	265.651978	564.112366	-442.374451	396.644135	553.602295	-443.367218	257.270752	300.128662	-354.538757	251.308151	279.137146	-403.326843	257.171295	244.923264	-368.009399	267.578308	225.582581	-420.131989	259.341400	115.409592	-363.177032	349.430878	123.698936	-400.689026	306.599396	94.773979	-303.268341	275.812897	58.195412	-303.472015	334.135956	56.412750	-307.955475	344.702179	55.228317	-530.651428	229.760727	41.531952	-493.000885	523.387345	1041.760494	-477.191317	350.944227	1038.574728	-475.479787	546.220840	545.648438	-453.014862	331.148056	558.857330	-442.870834	563.636963	119.505177	-381.841156	304.386139	119.554264	-381.933029
128	0.529167	494.830902	1162.241211	-354.623108	386.388245	1159.685303	-350.962677	554.744080	1105.392090	-558.661316	315.574371	1100.990234	-556.282227	637.001587	1023.885559	-450.133606	639.374451	836.316650	-461.372833	627.295471	819.442993	-518.514954	629.691833	753.572083	-476.364197	606.369568	737.430481	-527.656921	609.052246	552.733398	-458.230682	483.395599	538.591553	-447.783081	612.946228	307.323853	-361.064392	614.911499	287.903595	-419.477478	611.338074	249.557465	-372.239777	600.283508	231.756866	-428.240417	605.346008	114.659393	-359.441925	521.939453	124.189934	-404.290710	560.331421	95.554810	-304.823425	528.732300	58.233746	-314.358673	592.827209	58.838940	-308.809937	517.359192	76.221382	-380.628845	618.390930	72.281219	-367.059052	530.429321	94.473320	-438.342957	536.993347	78.100555	-469.413788	586.257446	101.826492	-477.467987	632.218933	47.683956	-410.228271	537.288330	50.736515	-527.324646	591.997009	65.789276	-537.530151	648.229980	42.298702	-490.581635	582.579956	53.290127	-596.867676	244.513672	1012.983398	-444.732941	238.896347	830.817322	-444.342773	242.085938	813.679932	-502.578125	243.023758	746.208008	-457.696747	263.044373	730.920776	-513.547729	265.637665	564.115173	-442.381836	396.623688	553.589722	-443.369904	257.279999	300.129150	-354.540070	251.315292	279.109100	-403.345184	257.152435	244.879517	-368.016052	267.521027	225.611710	-420.133514	259.354126	115.385094	-363.219086	349.428223	123.712952	-400.671265	306.617310	94.818848	-303.241760	275.798645	58.189106	-303.497742	334.115021	56.403610	-307.943024	344.707336	55.241329	-530.660339	229.739059	41.516228	-492.986542	523.350045	1041.758514	-477.246599	350.901232	1038.584639	-475.531202	546.223923	545.662476	-453.006882	331.130676	558.852448	-442.875870	563.642731	119.424664	-381.866318	304.391174	119.549023	-381.945175
129	0.533333	494.828033	1162.261230	-354.671692	386.378387	1159.695312	-351.007904	554.705627	1105.389282	-558.708374	315.586792	1100.986084	-556.327454	636.994751	1023.909607	-450.179443	639.359619	836.327393	-461.381256	627.295288	819.465393	-518.541016	629.669373	753.558350	-476.391327	606.351257	737.447815	-527.664307	609.041870	552.717163	-458.229889	483.372253	538.578430	-447.810760	612.957336	307.346527	-361.068726	614.902649	287.903717	-419.459381	611.341980	249.563690	-372.213562	600.304932	231.789932	-428.233032	605.308533	114.689293	-359.415985	521.954102	124.162643	-404.293213	560.316406	95.555511	-304.816345	528.728821	58.197155	-314.371338	592.912231	58.847843	-308.781372	517.330688	76.261200	-380.685028	618.253418	72.205544	-367.128632	530.434937	94.470306	-438.315063	537.002136	78.123276	-469.469452	586.273865	101.836624	-477.474609	632.314758	47.739094	-410.220337	537.323303	50.716526	-527.333374	592.015442	65.814674	-537.524231	648.249695	42.295181	-490.600952	582.580872	53.274521	-596.850647	244.501114	1012.987244	-444.761597	238.894989	830.806519	-444.371429	242.086182	813.653137	-502.613922	243.003738	746.229980	-457.731628	263.022797	730.918457	-513.562744	265.623688	564.138123	-442.386627	396.627533	553.605835	-443.371674	257.284943	300.162415	-354.568573	251.295593	279.097870	-403.291718	257.174866	244.868652	-368.026703	267.529083	225.629181	-420.123962	259.353271	115.414909	-363.209076	349.413605	123.724411	-400.673401	306.590881	94.817482	-303.252991	275.766479	58.197304	-303.478943	334.140381	56.418125	-307.933197	344.686859	55.231216	-530.641785	229.735703	41.518837	-493.007111	523.321253	1041.777327	-477.291255	350.906020	1038.602426	-475.574507	546.207062	545.647797	-453.020325	331.125610	558.871979	-442.879150	563.631317	119.425968	-381.854599	304.383438	119.569660	-381.941238
130	0.537500	494.814667	1162.295288	-354.700348	386.383911	1159.705933	-351.070496	554.703918	1105.396729	-558.740295	315.560547	1100.982666	-556.359131	636.958069	1023.902405	-450.220459	639.324036	836.340393	-461.393463	627.274658	819.462585	-518.556946	629.657959	753.572754	-476.389130	606.317261	737.453125	-527.693604	609.035156	552.744446	-458.225708	483.387238	538.582336	-447.815826	612.952637	307.356262	-361.074402	614.906189	287.908630	-419.469849	611.308411	249.553574	-372.241516	600.269226	231.776016	-428.225739	605.272888	114.718056	-359.352142	522.008362	124.283363	-404.307281	560.316650	95.565865	-304.820190	528.714539	58.214588	-314.387085	592.905823	58.855881	-308.785767	517.342468	76.229103	-380.693909	618.244263	72.183289	-367.135101	530.411743	94.489197	-438.352539	536.996338	78.127350	-469.443970	586.201294	101.751236	-477.457611	632.212891	47.698364	-410.217712	537.280884	50.730877	-527.299194	591.999023	65.821274	-537.520569	648.244690	42.298042	-490.578339	582.574341	53.297565	-596.871521	244.512314	1012.975891	-444.777313	238.891586	830.825989	-444.396729	242.060318	813.651489	-502.612335	243.045013	746.171204	-457.738159	263.023621	730.902832	-513.582214	265.616974	564.127380	-442.379120	396.620850	553.602600	-443.387390	257.297424	300.184906	-354.563782	251.312805	279.113220	-403.298828	257.139679	244.883545	-368.014130	267.529785	225.670746	-420.156281	259.336426	115.379562	-363.210419	349.435913	123.714958	-400.706268	306.606384	94.801529	-303.273621	275.795441	58.202049	-303.471527	334.139038	56.425205	-307.942719	344.688538	55.239288	-530.661316	229.756775	41.496780	-492.999725	523.318159	1041.784400	-477.316098	350.886743	1038.601694	-475.599188	546.211197	545.663391	-453.020767	331.118912	558.864990	-442.883255	563.640625	119.500710	-381.829712	304.386169	119.547260	-381.958344
